<?xml version="1.0" encoding="utf-8"?>
<!-- Generator: Adobe Illustrator 27.5.0, SVG Export Plug-In . SVG Version: 6.00 Build 0)  -->
<svg version="1.1" id="图层_1" xmlns="http://www.w3.org/2000/svg" xmlns:xlink="http://www.w3.org/1999/xlink" x="0px" y="0px"
	 viewBox="0 0 206 194" style="enable-background:new 0 0 206 194;" xml:space="preserve">
<g id="_x23_ffffffff">
</g>
<g id="_x23_000000ff">
	<path d="M150.8,152.1c0.4,5.4-4.5,10-9.8,9.9c-4.3,0.3-7.4-3-10.5-5.5c-18.3-15.4-36.8-30.6-55.1-46c-1.6-1.2-2.7-3-4.7-3.6
		c0,15.3,0,30.7,0,46c0.1,4.7-4.1,8.6-8.7,9c-5.3,0.7-11-3.5-10.9-9c0-34,0-68,0-101.9c0.2-1.3-0.1-2.9,1-3.8
		c2.9-6.9,14.5-6.9,17.5,0c1.1,0.9,0.8,2.5,1,3.8c0,15.3,0.1,30.6,0,45.9c2.1-0.2,3.1-2.4,4.8-3.5c19.8-16.5,39.6-33.1,59.5-49.5
		c5.7-4.6,15.6-0.4,15.8,7.1C150.8,84.7,150.7,118.4,150.8,152.1z"/>
</g>
</svg>
