<?xml version="1.0" encoding="UTF-8" ?>
<!DOCTYPE svg PUBLIC "-//W3C//DTD SVG 1.1//EN" "http://www.w3.org/Graphics/SVG/1.1/DTD/svg11.dtd">
<svg width="238pt" height="212pt" viewBox="0 0 238 212" version="1.1" xmlns="http://www.w3.org/2000/svg">
<g id="#ffffffff">
</g>
<g id="#1e3050ff">
<path fill="#1e3050" opacity="1.00" d=" M 191.44 31.46 C 193.90 30.69 196.50 29.59 199.12 30.30 C 203.18 31.09 206.81 34.73 206.75 39.01 C 206.81 46.34 206.85 53.68 206.73 61.02 C 206.70 64.82 203.77 68.06 200.28 69.24 C 192.47 72.05 184.49 74.39 176.74 77.37 C 176.86 106.58 176.76 135.80 176.79 165.02 C 177.05 173.82 170.43 181.17 163.02 185.02 C 151.63 190.89 137.81 191.39 125.79 187.18 C 118.41 184.43 111.31 179.35 108.38 171.77 C 106.02 165.67 107.14 158.42 111.12 153.23 C 117.16 145.22 127.21 141.32 136.94 140.34 C 143.76 139.38 150.67 140.51 157.22 142.48 C 157.21 111.62 157.19 80.77 157.22 49.91 C 156.95 45.80 159.85 42.04 163.68 40.77 C 172.90 37.58 182.21 34.62 191.44 31.46 Z" />
<path fill="#1e3050" opacity="1.00" d=" M 53.43 50.61 C 55.20 49.96 57.12 50.01 58.98 49.98 C 81.69 50.05 104.39 49.95 127.10 50.02 C 131.19 49.93 135.23 52.66 136.45 56.59 C 137.19 60.18 137.07 64.48 134.15 67.11 C 131.82 69.62 128.26 70.17 125.00 70.02 C 102.30 69.95 79.59 70.05 56.88 69.98 C 53.28 70.04 49.78 67.97 48.11 64.79 C 45.71 59.65 47.64 52.42 53.43 50.61 Z" />
<path fill="#1e3050" opacity="1.00" d=" M 53.47 90.59 C 55.22 89.97 57.11 90.01 58.94 89.98 C 81.67 90.05 104.40 89.95 127.13 90.02 C 131.21 89.94 135.25 92.68 136.45 96.62 C 137.18 100.19 137.07 104.47 134.17 107.09 C 131.83 109.62 128.24 110.17 124.96 110.03 C 102.29 109.95 79.62 110.05 56.95 109.98 C 53.34 110.06 49.80 108.01 48.12 104.81 C 45.69 99.66 47.65 92.39 53.47 90.59 Z" />
<path fill="#1e3050" opacity="1.00" d=" M 53.37 130.63 C 55.49 129.86 57.79 130.01 60.01 129.97 C 69.03 130.06 78.06 129.93 87.09 130.02 C 90.43 129.97 93.71 131.71 95.50 134.54 C 98.90 140.13 95.98 148.82 89.08 149.79 C 78.74 150.30 68.35 149.85 57.99 150.01 C 54.30 150.25 50.46 148.66 48.49 145.43 C 45.51 140.35 47.39 132.54 53.37 130.63 Z" />
</g>
</svg>
