<?xml version="1.0" encoding="UTF-8" ?>
<!DOCTYPE svg PUBLIC "-//W3C//DTD SVG 1.1//EN" "http://www.w3.org/Graphics/SVG/1.1/DTD/svg11.dtd">
<svg width="206pt" height="194pt" viewBox="0 0 206 194" version="1.1" xmlns="http://www.w3.org/2000/svg">
<g id="#ffffffff">
</g>
<g id="#000000ff">
<path fill="#000000" opacity="1.00" d=" M 51.20 51.94 C 50.85 46.58 55.71 41.90 61.00 41.99 C 65.28 41.70 68.41 45.00 71.46 47.48 C 89.80 62.83 108.21 78.09 126.55 93.44 C 128.13 94.60 129.27 96.43 131.23 97.00 C 131.20 81.67 131.19 66.34 131.23 51.01 C 131.12 46.32 135.33 42.44 139.90 42.05 C 145.19 41.31 150.90 45.53 150.77 51.00 C 150.81 84.98 150.80 118.97 150.77 152.95 C 150.53 154.21 150.84 155.86 149.74 156.77 C 146.80 163.71 135.19 163.69 132.26 156.76 C 131.15 155.87 131.48 154.24 131.23 152.99 C 131.21 137.71 131.15 122.41 131.26 107.13 C 129.18 107.36 128.14 109.54 126.49 110.61 C 106.67 127.13 86.90 143.69 67.02 160.13 C 61.27 164.71 51.37 160.52 51.26 153.04 C 51.14 119.35 51.25 85.64 51.20 51.94 Z" />
</g>
</svg>
