<?xml version="1.0" encoding="utf-8"?>
<!-- Generator: Adobe Illustrator 27.5.0, SVG Export Plug-In . SVG Version: 6.00 Build 0)  -->
<svg version="1.1" id="图层_1" xmlns="http://www.w3.org/2000/svg" xmlns:xlink="http://www.w3.org/1999/xlink" x="0px" y="0px"
	 viewBox="0 0 320 512" style="enable-background:new 0 0 320 512;" xml:space="preserve">
<path d="M48,45C21.5,45,0,69.4,0,99.5v327C0,456.6,21.5,481,48,481h32c26.5,0,48-24.4,48-54.5v-327C128,69.4,106.5,45,80,45H48z
	 M240,45c-26.5,0-48,24.4-48,54.5v327c0,30.1,21.5,54.5,48,54.5h32c26.5,0,48-24.4,48-54.5v-327c0-30.1-21.5-54.5-48-54.5H240z"/>
</svg>
