<?xml version="1.0" encoding="utf-8"?>
<!-- Generator: Adobe Illustrator 27.5.0, SVG Export Plug-In . SVG Version: 6.00 Build 0)  -->
<svg version="1.1" id="Layer_1" xmlns="http://www.w3.org/2000/svg" xmlns:xlink="http://www.w3.org/1999/xlink" x="0px" y="0px"
	 viewBox="0 0 378 332" style="enable-background:new 0 0 378 332;" xml:space="preserve">
<style type="text/css">
	.st0{fill:#010204;}
</style>
<g>
	<path class="st0" d="M192.06,56.08c7.8-4.56,18.59,0.52,21,9c0.88,6.26,0.6,12.59,0.64,18.9c0,53.35-0.01,106.71,0,160.06
		c0.05,2.97-0.28,5.93-0.63,8.87c-1.65,5.08-5.99,8.93-11.01,10.53c-2.67-0.08-5.93,0.98-8.13-1c-0.21,0.05-0.63,0.14-0.84,0.19
		c-4.34-2.36-7.37-6.36-11.29-9.26c-0.42-0.41-1.25-1.24-1.67-1.66c-2.87-2-5.15-4.71-7.82-6.96c-0.3-0.29-0.9-0.89-1.2-1.18
		l-0.69-0.02l-0.05-0.67c-5.52-4.15-10.31-9.19-15.62-13.59c-3.26-2.74-6.3-5.73-9.49-8.55c-0.25-0.24-0.76-0.71-1.01-0.95
		c-2.47-1.84-4.59-4.09-6.97-6.04c-3.44-3.01-6.88-6.06-10.09-9.32c-12.57-1.96-25.56,0.74-38.12-1.51
		c-1.7-0.16-3.39-0.45-4.96-1.15c-3.53-1.03-6.65-3.05-9.38-5.47c-0.26-0.24-0.78-0.71-1.04-0.95c-0.36-0.48-1.08-1.43-1.44-1.9
		l-0.46,0.15c-2.58-3.2-4.67-6.73-6.19-10.55c-0.13-1.54-0.21-3.08-0.25-4.61l-0.85,0.08c-0.29-13.36-0.51-26.75,0.14-40.1
		l0.77,0.25c0.03-1.4,0.07-2.79,0.1-4.19l0.73,0.03c0.8-3.98,3.32-7.35,5.91-10.36c0.84-0.85,1.66-1.72,2.49-2.57
		c2.53-1.6,4.75-3.95,7.83-4.43l0.09-0.65c3.79-0.79,7.5-2.26,11.44-2.1c10.84-0.05,21.69,0.04,32.54-0.05l-0.19-0.6
		c2.88-1.84,5.04-4.55,7.69-6.68c3.14-2.5,6.02-5.29,9.02-7.94c8.99-8.03,18.08-15.98,27.02-24.07c0.85-0.82,1.72-1.61,2.62-2.37
		c1.48-1.19,2.91-2.45,4.4-3.63C181.96,64.62,186.64,59.86,192.06,56.08z"/>
	<path class="st0" d="M269.1,92.05c3.61-5.8,12.63-6.32,17.39-1.72c6.2,5.17,11.68,11.18,16.29,17.81
		c2.45,3.46,4.57,7.13,6.59,10.85c1.23,2.68,2.46,5.36,3.41,8.16c0.4,0.98,0.77,1.97,1.13,2.96c0.39,1.3,0.82,2.6,1.33,3.87
		c0.18,1,0.35,2.01,0.54,3.01c1.19,3.56,1.47,7.35,2.12,11.03c0.81,7.24,0.87,14.68-0.02,21.91c-0.21,2.01-0.52,4-1.04,5.95
		c-0.08,1.68-0.26,3.38-1.06,4.9c-0.26,1.39-0.5,2.78-0.8,4.17c-0.38,0.95-0.74,1.91-1.09,2.88c-0.35,1.06-0.72,2.12-1.12,3.17
		c-0.81,2.36-1.85,4.62-3,6.83c-3.74,8.09-8.98,15.39-14.94,21.97c-3.22,3.62-6.97,6.67-10.68,9.75c-5.14,2.57-11.81,1.32-15.1-3.56
		c-0.88-1.91,0.08-4.86-2.06-5.96c1.82-0.99,1.32-3.38,2.04-5.02c2.51-3.48,6.04-5.94,9.08-8.9c2.27-2.68,4.61-5.3,6.65-8.16
		c0.8-1.31,1.67-2.58,2.56-3.83c0.92-1.99,1.86-3.97,2.99-5.85c0.4-1.14,0.91-2.24,1.48-3.3c0.42-1.12,0.74-2.27,0.97-3.45
		l0.53,0.13c0.37-2.58,1.11-5.09,1.91-7.57c1.87-8.41,1.48-17.05,1.17-25.61l-0.8,0.09c-0.09-1.56-0.2-3.11-0.31-4.67
		c-0.36-0.99-0.7-1.98-1.02-2.98c-0.39-1.35-0.69-2.71-0.95-4.08c-1.21-2.26-1.94-4.73-2.9-7.1c-1.37-2.75-3.08-5.36-4.2-8.23
		l-0.44,0.09c-3.88-5.74-8.41-11.13-13.97-15.31c-1.09-1.72-3.12-2.97-3.37-5.12C268.27,98.13,267.91,94.93,269.1,92.05z"/>
	<path class="st0" d="M242.97,124.92c2.9-3.52,8.18-3.18,12.15-2.09c5.55,3.84,9.88,9.28,13.24,15.11c0.84,2.09,1.82,4.13,2.5,6.29
		c1.15,2.83,1.75,5.82,1.9,8.86c1.26,3.79,1.01,8.14,0.08,11.98c-0.34,2.99-0.96,5.94-1.93,8.8c-0.51,1.37-1.04,2.74-1.52,4.13
		c-0.91,1.61-1.66,3.31-2.72,4.83l0.13,0.88l-0.86-0.12c-1.72,4.09-5.22,7.03-8.32,10.06c-4.93,3.63-13.34,3.01-16.51-2.74
		c-1.54-2.53-1.7-5.52-1.67-8.39l0.72,0.1c0.24-1.2,0.55-2.38,0.95-3.53c2.89-3.82,7.63-6.45,8.6-11.49l0.67,0.02
		c0.1-0.67,0.28-2.01,0.38-2.68c0.67-1.49,0.85-3.11,0.77-4.72l0.78,0.59c0-0.9-0.01-2.71-0.01-3.61l-0.76,0.55
		c-0.06-1.27-0.16-2.53-0.23-3.8c-0.47-1.33-0.93-2.66-1.46-3.96c-0.64-1.29-1.32-2.55-2.09-3.76c-2.26-3.86-7.49-5.87-7.57-10.84
		l-0.65,0.24c-0.35-2.98,0.23-5.93,1.58-8.59C241.72,126.32,242.34,125.61,242.97,124.92z"/>
</g>
</svg>
