<?xml version="1.0" encoding="UTF-8"?>
<svg id="_图层_1" data-name="图层 1" xmlns="http://www.w3.org/2000/svg" viewBox="0 0 108 108">
  <defs>
    <style>
      .cls-1 {
        fill: #fff;
      }
    </style>
  </defs>
  <g id="_000000ff" data-name="#000000ff">
    <path d="m11.37,0h85.23c2.69.19,5.31,1.26,7.32,3.07,2.38,2.09,3.85,5.15,4.08,8.31v85.03c-.13,2.65-1.14,5.26-2.87,7.28-2.15,2.57-5.39,4.16-8.73,4.31H11.61c-2.76-.13-5.47-1.22-7.54-3.07-2.38-2.09-3.85-5.14-4.07-8.3V11.4c.22-3.2,1.72-6.3,4.15-8.4C6.14,1.24,8.73.2,11.37,0m-.72,14.14c0,8.85,0,17.7,0,26.54,2.24-.13,4.48-.02,6.72-.06,0-6.57,0-13.14,0-19.71-.01-2,1.71-3.79,3.71-3.85,4.99-.02,9.98,0,14.96-.01,1.35-.09,2.73.51,3.51,1.63.7.9.8,2.07.74,3.17,2.24,0,4.48,0,6.72,0,0-2.61,0-5.23,0-7.85-.06-1.96-1.79-3.69-3.75-3.7-9.62,0-19.24,0-28.85,0-2.01.02-3.77,1.84-3.76,3.85m50.83-3.68c-1.58.47-2.78,2.01-2.83,3.67,0,2.57,0,5.14,0,7.72,1.85,0,3.7,0,5.55,0,.05-1.17-.17-2.4.31-3.51.59-1.47,2.11-2.51,3.7-2.49,7.11,0,14.23,0,21.34,0,2.03.06,3.8,1.87,3.82,3.91,0,7.11,0,14.23,0,21.34-.02,2.02-1.78,3.83-3.81,3.89-7.12,0-14.23,0-21.35,0-1.23.01-2.44-.6-3.18-1.59-.61-.78-.87-1.78-.83-2.76-1.85,0-3.7,0-5.55,0,0,2.02,0,4.04,0,6.07.04,2.05,1.88,3.84,3.93,3.84,10.77,0,21.54,0,32.3,0,2.19.05,4.14-1.94,4.03-4.12,0-10.77,0-21.54,0-32.32-.05-2.02-1.85-3.82-3.88-3.83-10.48,0-20.96,0-31.44,0-.71,0-1.43-.06-2.11.17m-21.18,53.74c2.24.01,4.48-.03,6.72-.02,0-7.85,0-15.69,0-23.54-2.24,0-4.48,0-6.72,0,0,7.85,0,15.71,0,23.56m18.58-2.9c-.36.93-.21,1.93-.24,2.9,10.32,0,20.64-.05,30.96.01,2.15.1,3.92,2.14,3.75,4.28,0,7.01.01,14.02,0,21.04-.05,2.05-1.9,3.84-3.95,3.83-7.07,0-14.14,0-21.21,0-2.04.03-3.89-1.72-3.99-3.76-.03-2.2,0-4.4-.01-6.6-1.85,0-3.7,0-5.55,0,0,3.91,0,7.82,0,11.73-.14,2.17,1.76,4.19,3.93,4.18,10.81,0,21.62,0,32.44,0,1.58-.02,3.07-1.09,3.63-2.57.27-.64.29-1.35.27-2.04,0-10.58,0-21.15,0-31.73,0-2.07-1.82-3.91-3.89-3.92-10.82,0-21.63,0-32.45,0-1.62.01-3.15,1.13-3.69,2.65m-48.24,21.63c0,4.03,0,8.06,0,12.09-.03,2.02,1.72,3.85,3.75,3.89,9.52,0,19.05,0,28.57,0,2.13.13,4.1-1.76,4.05-3.89,0-4,0-8.01,0-12.01-2.24,0-4.48-.02-6.72-.01,0,2.28,0,4.55,0,6.83,0,1.62-1.14,3.14-2.68,3.63-.74.27-1.53.18-2.3.19-4.76,0-9.51,0-14.27,0-1.92-.07-3.6-1.76-3.67-3.68-.02-2.32,0-4.64-.01-6.97h-4.97c-.58,0-1.17.03-1.75-.06Z"/>
  </g>
  <g id="_ffffffff" data-name="#ffffffff">
    <path class="cls-1" d="m10.66,14.14c-.01-2.01,1.74-3.82,3.76-3.85,9.62,0,19.24,0,28.85,0,1.96.02,3.7,1.75,3.75,3.7.02,2.62,0,5.23,0,7.85-2.24,0-4.48,0-6.72,0,.06-1.1-.05-2.27-.74-3.17-.78-1.11-2.16-1.71-3.51-1.63-4.99,0-9.98-.01-14.96.01-2,.06-3.72,1.86-3.71,3.85,0,6.57,0,13.14,0,19.71-2.24.04-4.49-.07-6.72.06,0-8.85,0-17.7,0-26.54Z"/>
    <path class="cls-1" d="m61.48,10.46c.68-.24,1.4-.16,2.11-.17,10.48,0,20.96,0,31.44,0,2.03.01,3.83,1.8,3.88,3.83.01,10.77,0,21.54,0,32.32.11,2.18-1.85,4.18-4.03,4.12-10.77,0-21.54,0-32.3,0-2.05,0-3.89-1.79-3.93-3.84,0-2.02,0-4.04,0-6.07,1.85,0,3.7,0,5.55,0-.04.98.22,1.98.83,2.76.74.98,1.95,1.6,3.18,1.59,7.11,0,14.23,0,21.35,0,2.02-.05,3.78-1.86,3.81-3.89,0-7.11,0-14.23,0-21.34-.01-2.03-1.79-3.85-3.82-3.91-7.11-.01-14.22,0-21.34,0-1.59-.01-3.11,1.02-3.7,2.49-.48,1.11-.26,2.34-.31,3.51-1.85,0-3.7,0-5.55,0,0-2.57,0-5.14,0-7.72.05-1.66,1.24-3.19,2.83-3.67Z"/>
    <path class="cls-1" d="m40.3,64.2c0-7.85,0-15.71,0-23.56,2.24,0,4.48,0,6.72,0,0,7.85,0,15.69,0,23.54-2.24,0-4.48.03-6.72.02Z"/>
    <path class="cls-1" d="m58.89,61.3c.54-1.53,2.07-2.64,3.69-2.65,10.82,0,21.63,0,32.45,0,2.06.02,3.89,1.86,3.89,3.92,0,10.58,0,21.15,0,31.73.02.69,0,1.4-.27,2.04-.56,1.48-2.05,2.54-3.63,2.57-10.81,0-21.62,0-32.44,0-2.18.01-4.07-2.01-3.93-4.18,0-3.91,0-7.82,0-11.73,1.85,0,3.7,0,5.55,0,0,2.2-.02,4.4.01,6.6.09,2.04,1.95,3.78,3.99,3.76,7.07,0,14.14,0,21.21,0,2.05,0,3.9-1.78,3.95-3.83.02-7.01,0-14.02,0-21.04.16-2.14-1.61-4.18-3.75-4.28-10.32-.07-20.64-.01-30.96-.01.03-.97-.12-1.97.24-2.9Z"/>
    <path class="cls-1" d="m10.65,82.94c.58.09,1.17.06,1.75.06h4.97c.01,2.32-.01,4.65.01,6.97.07,1.92,1.75,3.61,3.67,3.68,4.76,0,9.51,0,14.27,0,.77-.01,1.56.08,2.3-.19,1.54-.49,2.67-2.02,2.68-3.63,0-2.28,0-4.55,0-6.83,2.24-.01,4.48.02,6.72.01,0,4,0,8.01,0,12.01.05,2.13-1.92,4.02-4.05,3.89-9.52,0-19.05,0-28.57,0-2.03-.03-3.78-1.87-3.75-3.89,0-4.03,0-8.06,0-12.09Z"/>
  </g>
</svg>